<?xml version="1.0" encoding="iso-8859-1"?>
<!-- Uploaded to: SVG Repo, www.svgrepo.com, Generator: SVG Repo Mixer Tools -->
<svg fill="#000000" height="800px" width="800px" version="1.1" id="Layer_1" xmlns="http://www.w3.org/2000/svg" xmlns:xlink="http://www.w3.org/1999/xlink" 
	 viewBox="0 0 512 512" xml:space="preserve">
<path d="M393.101,126.028c-0.095-0.026-0.189-0.051-0.285-0.075c-20.586-41.304-62.488-67.505-109.249-67.505
	c-77.43,0-135.988,71.709-119.298,148.232c-9.463,8.282-17.855,16.311-25.08,23.638v-10.999
	c0-67.324-54.772-122.097-122.097-122.097C7.653,97.222,0,104.875,0,114.315V194.2c0,29.802,9.816,58.095,27.92,81.188
	C9.816,298.478,0,326.771,0,356.574v79.885c0,9.44,7.653,17.093,17.093,17.093c67.324,0,122.097-54.772,122.097-122.097v-10.991
	c58.56,59.405,136.789,107.953,220.553,107.953C542.914,428.417,569.017,165.285,393.101,126.028z M34.186,417.698v-61.125
	c0-26.103,10.166-50.643,28.623-69.101c6.671-6.668,6.675-17.5,0-24.173c-18.457-18.457-28.623-42.997-28.623-69.101v-61.125
	c40.322,7.977,70.818,43.614,70.818,86.244c0,13.938,0,100.429,0,112.137C105.004,374.084,74.508,409.722,34.186,417.698z
	 M395.494,388.734c-46.877-68.01-46.934-158.603,0-226.696C505.935,196.943,505.961,353.822,395.494,388.734z M283.567,92.633
	c25.948,0,49.82,11.2,66.19,29.95c-55.903,2.541-108.761,26.318-154.121,59.068C195.033,132.733,234.668,92.633,283.567,92.633z
	 M144.15,275.377c53.045-61.994,132.531-118.231,214.288-118.813c-43.047,72.851-43.087,164.726,0.001,237.646
	C276.36,393.623,196.965,337.036,144.15,275.377z M437.957,244.671c0.009-10.291-8.325-18.64-18.616-18.649
	s-18.64,8.325-18.649,18.616c-0.009,10.291,8.325,18.64,18.616,18.649C429.599,263.296,437.948,254.962,437.957,244.671z"/>
</svg>