<?xml version="1.0" standalone="no"?>
<!DOCTYPE svg PUBLIC "-//W3C//DTD SVG 20010904//EN"
 "http://www.w3.org/TR/2001/REC-SVG-20010904/DTD/svg10.dtd">
<svg version="1.0" xmlns="http://www.w3.org/2000/svg"
 width="1031.000000pt" height="1280.000000pt" viewBox="0 0 1031.000000 1280.000000"
 preserveAspectRatio="xMidYMid meet">
<metadata>
Created by potrace 1.15, written by Peter Selinger 2001-2017
</metadata>
<g transform="translate(0.000000,1280.000000) scale(0.100000,-0.100000)"
fill="#000000" stroke="none">
<path d="M6729 12731 c-1057 -539 -1982 -1421 -2641 -2521 -442 -737 -724
-1454 -987 -2505 -166 -666 -218 -1057 -241 -1810 -29 -959 -43 -1282 -66
-1479 -16 -149 -28 -198 -49 -216 -23 -19 -132 39 -288 155 -70 51 -153 107
-185 122 -54 27 -64 28 -200 28 -139 0 -144 1 -163 24 -10 13 -19 32 -19 43 0
53 -173 667 -270 958 -177 532 -290 699 -625 922 -154 103 -289 169 -353 176
-43 4 -51 1 -66 -19 -35 -51 -11 -190 39 -223 13 -9 59 -25 101 -36 203 -55
441 -239 517 -402 41 -88 263 -685 337 -906 97 -292 99 -315 23 -228 -59 68
-155 229 -281 471 -198 381 -233 421 -487 545 -88 43 -211 97 -274 120 -187
68 -249 108 -291 189 -32 62 -73 93 -129 99 -88 8 -138 -48 -128 -142 5 -45
12 -56 53 -93 52 -46 283 -181 414 -241 94 -43 164 -67 225 -77 60 -10 113
-45 194 -130 88 -93 173 -221 252 -378 138 -274 250 -436 434 -627 176 -183
170 -169 170 -380 0 -160 2 -180 23 -233 32 -79 89 -146 153 -182 52 -29 58
-30 184 -30 72 0 175 4 230 9 151 13 150 13 560 -355 545 -491 753 -649 849
-649 74 0 253 -118 339 -224 100 -121 133 -206 190 -481 48 -230 76 -396 146
-882 66 -448 120 -785 151 -928 50 -227 190 -279 351 -128 209 195 339 620
308 1005 -44 546 -329 1086 -905 1713 -156 171 -235 267 -231 284 16 77 409
-178 962 -623 1641 -1321 2091 -1647 2730 -1971 672 -341 1189 -454 1653 -359
187 38 440 142 596 245 232 153 309 324 260 579 -25 132 -67 238 -219 550
-191 391 -229 508 -242 745 -10 190 18 426 108 925 28 151 61 343 74 425 105
664 75 992 -132 1413 -267 543 -673 862 -1245 976 -545 109 -1130 54 -1641
-156 -571 -233 -1168 -674 -1957 -1443 -498 -486 -567 -534 -972 -673 -220
-76 -396 -109 -438 -82 -25 16 -2 39 131 128 153 104 439 308 1024 732 702
509 1267 908 1835 1295 909 620 1044 730 1157 941 58 110 108 238 129 330 32
146 7 547 -52 824 -71 335 -190 630 -486 1209 l-181 356 -8 1130 c-4 622 -12
1222 -18 1335 -32 591 -85 814 -208 866 -55 24 -85 16 -224 -55z"/>
</g>
</svg>
