<?xml version="1.0" standalone="no"?>
<!DOCTYPE svg PUBLIC "-//W3C//DTD SVG 20010904//EN"
 "http://www.w3.org/TR/2001/REC-SVG-20010904/DTD/svg10.dtd">
<svg version="1.0" xmlns="http://www.w3.org/2000/svg"
 width="1280.000000pt" height="1255.000000pt" viewBox="0 0 1280.000000 1255.000000"
 preserveAspectRatio="xMidYMid meet">
<metadata>
Created by potrace 1.15, written by Peter Selinger 2001-2017
</metadata>
<g transform="translate(0.000000,1255.000000) scale(0.100000,-0.100000)"
fill="#000000" stroke="none">
<path d="M10690 12531 c-67 -22 -197 -87 -345 -173 l-110 -63 -160 14 c-99 8
-311 14 -555 15 -365 1 -406 -1 -539 -22 -378 -60 -586 -136 -876 -322 -253
-162 -343 -204 -527 -250 -65 -16 -151 -45 -195 -67 -87 -43 -184 -127 -214
-184 -35 -69 -21 -145 41 -214 10 -11 23 -51 29 -90 25 -153 73 -230 159 -256
29 -8 44 -19 47 -33 27 -136 61 -206 141 -287 92 -94 282 -184 472 -224 40 -8
134 -24 210 -36 157 -23 284 -53 462 -109 267 -83 270 -84 531 -84 267 -1 269
-2 269 -71 0 -121 -170 -314 -363 -411 -125 -63 -265 -104 -360 -104 l-42 -1
35 -29 c32 -27 102 -66 155 -85 14 -6 1 -11 -50 -20 -95 -17 -195 -57 -280
-110 -66 -42 -135 -98 -135 -110 0 -3 21 -5 48 -5 26 0 65 -9 87 -19 l40 -19
-100 -1 c-62 -1 -161 9 -260 24 -277 44 -308 48 -410 48 -55 0 -120 -6 -145
-13 -56 -15 -140 -50 -140 -59 0 -3 30 -21 66 -40 62 -32 181 -130 139 -115
-11 3 -58 20 -105 37 -66 24 -107 32 -183 35 -121 5 -152 -2 -319 -79 -120
-55 -223 -88 -330 -104 -21 -3 -38 -10 -38 -15 0 -5 38 -21 85 -36 46 -16 83
-29 81 -31 -2 -2 -45 -15 -96 -28 -306 -82 -574 -210 -847 -404 -34 -24 -60
-47 -58 -51 2 -3 46 5 97 18 66 17 131 26 226 29 72 3 132 3 132 1 0 -13 -130
-94 -215 -134 -52 -25 -204 -81 -337 -125 -134 -44 -283 -100 -333 -124 -128
-62 -272 -166 -227 -165 4 0 43 7 87 15 44 8 100 14 125 15 44 0 42 -1 -90
-67 -154 -77 -269 -152 -385 -248 -82 -69 -102 -92 -69 -83 177 51 166 49 150
27 -26 -37 -148 -136 -225 -183 -43 -26 -119 -61 -171 -80 l-93 -33 34 -37
c22 -24 53 -43 88 -55 l53 -17 -70 -65 c-39 -35 -124 -97 -189 -138 -345 -217
-446 -297 -526 -412 -33 -49 -81 -148 -75 -154 2 -3 55 15 116 39 103 41 127
45 103 21 -21 -22 -140 -276 -164 -350 -49 -148 -57 -249 -31 -373 25 -120 27
-120 79 -8 25 54 47 97 49 95 1 -2 -2 -62 -6 -134 -10 -132 -3 -945 8 -1022 3
-24 9 -43 13 -43 4 0 17 29 29 63 12 35 37 97 56 138 l34 74 7 -40 c11 -54
-11 -336 -35 -460 -11 -55 -32 -142 -46 -193 -15 -51 -24 -95 -21 -98 6 -6
124 115 142 145 15 25 22 -65 13 -162 -21 -211 -134 -427 -291 -558 l-61 -51
98 7 99 8 -23 -39 c-46 -76 -145 -200 -222 -278 -43 -43 -78 -80 -78 -81 0 -1
42 8 93 20 50 13 93 21 95 20 2 -2 -4 -18 -14 -37 -61 -120 -211 -286 -336
-374 -98 -69 -238 -136 -348 -166 -73 -20 -108 -23 -250 -23 -164 0 -166 1
-268 36 -56 20 -104 34 -106 30 -3 -4 36 -40 86 -81 90 -74 91 -75 62 -81 -16
-4 -74 -7 -129 -8 -248 -2 -499 54 -737 166 -54 25 -100 44 -103 41 -3 -2 29
-41 71 -86 l76 -82 -49 0 c-148 0 -333 113 -412 252 l-29 51 -17 -39 c-11 -27
-15 -60 -13 -107 2 -37 -1 -67 -5 -67 -19 0 -105 51 -130 78 -124 130 109 351
347 329 33 -3 72 -9 84 -13 24 -7 24 -7 8 24 -44 85 -139 152 -216 152 -22 0
-40 4 -40 8 0 5 26 17 58 27 44 14 105 20 277 26 285 9 336 23 443 123 17 16
32 34 32 38 0 4 -30 8 -67 8 -36 0 -64 2 -61 5 3 3 55 19 115 35 60 15 152 45
204 65 164 63 419 205 419 233 0 7 -4 11 -8 8 -19 -11 -149 -27 -179 -21 l-33
6 91 60 c105 71 250 211 333 322 32 43 56 80 55 82 -2 1 -49 -17 -104 -41 -55
-24 -101 -44 -102 -44 -1 0 36 51 83 113 83 109 193 311 228 417 8 25 18 54
22 64 6 16 0 14 -37 -11 -24 -16 -49 -33 -55 -36 -6 -4 3 21 21 56 44 83 65
168 65 263 l-1 79 -45 -50 c-41 -45 -45 -47 -40 -22 21 91 14 186 -17 254 -9
21 -14 16 -82 -75 -39 -53 -99 -127 -132 -164 -70 -76 -204 -201 -209 -195 -2
2 2 21 9 43 8 21 19 71 26 109 18 103 19 115 12 115 -3 -1 -28 -33 -56 -72
-65 -92 -237 -272 -339 -354 -69 -56 -246 -174 -260 -174 -3 0 13 30 34 67 43
73 64 146 58 207 l-3 39 -31 -44 c-112 -156 -313 -337 -497 -448 l-38 -23 7
28 c12 56 61 150 107 206 25 31 43 59 40 62 -9 8 -93 -38 -158 -87 -71 -54
-107 -96 -242 -277 -105 -141 -190 -239 -177 -205 33 92 44 135 54 202 13 85
11 149 -4 146 -6 -1 -26 -40 -47 -87 -82 -191 -261 -442 -388 -544 l-40 -32 9
28 c14 49 57 138 94 196 33 52 43 76 32 76 -3 0 -22 -10 -43 -22 -158 -91
-302 -236 -386 -387 l-35 -64 -7 69 c-4 38 -10 86 -14 106 l-6 37 -77 -107
c-115 -161 -167 -255 -202 -365 -5 -16 -14 -9 -52 37 -25 31 -46 56 -48 56 -6
0 -34 -132 -45 -207 -23 -153 -7 -402 38 -624 11 -52 18 -96 16 -98 -2 -2 -45
14 -95 34 -50 21 -93 36 -95 33 -8 -8 43 -136 93 -233 142 -275 366 -458 676
-551 230 -70 489 -88 1036 -72 405 11 600 4 766 -28 235 -45 456 -56 677 -33
59 6 110 10 112 7 3 -2 -4 -28 -15 -56 -11 -29 -20 -57 -20 -63 0 -15 142 -3
213 18 161 47 299 174 478 437 62 93 141 201 175 240 57 67 169 164 179 154 2
-2 -11 -55 -30 -118 -54 -179 -47 -185 44 -34 34 58 65 103 68 100 12 -11 -20
-197 -62 -366 -24 -96 -51 -215 -59 -265 -16 -89 -19 -243 -7 -300 6 -28 9
-25 75 78 37 60 70 107 71 105 1 -2 10 -61 20 -133 20 -161 58 -334 91 -423
29 -77 114 -242 125 -242 4 0 11 46 15 102 l9 102 39 -74 c87 -169 258 -365
424 -488 102 -75 248 -151 362 -187 72 -24 103 -28 205 -29 124 -1 149 4 255
50 l56 25 62 -20 63 -19 -7 21 c-4 12 -15 39 -26 60 -11 22 -18 41 -15 43 2 2
49 -12 105 -30 56 -19 102 -34 102 -32 0 1 -7 24 -16 50 -9 26 -14 49 -11 52
3 3 37 -11 77 -31 40 -20 74 -35 76 -33 5 5 -99 351 -126 418 -78 195 -212
304 -351 286 -49 -7 -50 -6 -149 65 -55 39 -105 79 -110 89 -22 41 -10 77 60
185 39 59 70 114 70 122 0 29 18 10 45 -47 16 -33 32 -60 35 -60 4 0 13 19 21
43 10 31 14 105 15 287 1 235 8 345 23 354 4 3 25 -36 46 -86 22 -50 45 -91
50 -92 6 0 11 26 12 59 11 271 76 476 194 609 37 41 58 56 77 56 101 1 318 75
440 151 l77 47 27 -51 c121 -232 182 -499 201 -881 l2 -49 60 77 60 76 3 -180
c2 -133 -1 -195 -12 -236 -8 -30 -11 -54 -8 -52 102 55 185 68 298 49 38 -7
150 -39 249 -71 346 -113 465 -140 631 -140 104 0 174 11 294 47 64 19 109 26
180 26 111 1 164 -10 360 -71 135 -42 153 -45 260 -46 104 -1 120 2 170 25 50
23 59 24 90 13 57 -20 147 -16 270 13 63 15 117 28 119 30 3 2 -4 10 -15 18
-17 13 -5 14 106 13 90 -1 141 3 180 15 107 32 113 19 -103 239 -174 178 -199
199 -267 232 -114 54 -206 70 -380 63 -80 -3 -199 -14 -265 -23 -74 -11 -184
-18 -285 -18 -144 -1 -174 2 -235 21 -87 27 -175 80 -237 141 -81 78 -77 115
33 303 79 135 81 136 77 66 -1 -31 -2 -57 0 -57 14 0 98 68 126 103 84 102
115 227 123 495 l6 183 56 -55 c31 -31 59 -56 62 -56 3 0 2 33 -3 72 -22 217
-97 401 -210 519 -26 27 -44 49 -40 49 4 0 43 -11 86 -25 44 -14 81 -24 82
-22 1 1 -34 43 -78 92 -167 189 -326 418 -433 627 -30 58 -55 109 -55 111 0 3
19 -5 43 -18 56 -31 173 -76 181 -68 3 3 -31 44 -75 92 -98 104 -198 235 -272
356 -58 96 -140 254 -152 295 -7 23 -4 22 31 -11 39 -37 188 -149 198 -149 3
0 -9 30 -25 68 -120 264 -148 539 -82 820 9 39 20 72 25 72 4 0 8 -7 8 -15 0
-8 17 -30 37 -50 l37 -36 13 65 c29 157 165 307 309 342 l29 7 -26 -29 c-35
-39 -58 -85 -68 -139 -10 -55 2 -67 24 -23 32 67 119 114 441 241 l162 63 -30
-43 c-33 -49 -109 -113 -157 -132 -17 -8 -31 -18 -31 -23 0 -13 45 -2 180 44
170 58 359 152 520 257 20 13 23 14 15 1 -30 -51 -76 -112 -119 -158 -27 -29
-47 -54 -44 -57 10 -11 190 71 467 210 157 79 309 153 337 164 l51 20 66 -40
c84 -50 154 -119 190 -186 40 -75 44 -148 17 -322 -24 -156 -22 -211 11 -274
10 -21 19 -56 19 -78 0 -22 6 -54 14 -72 12 -31 77 -97 95 -97 4 0 28 -20 53
-45 37 -36 53 -45 80 -45 42 0 100 39 146 98 37 46 92 161 92 191 0 28 17 35
29 12 13 -24 14 -111 2 -131 -21 -31 3 -28 45 6 l44 36 0 -125 c0 -302 47
-502 148 -635 l27 -35 7 44 c4 24 32 94 63 154 l55 110 -3 -166 -2 -167 36 29
c49 39 148 146 172 187 11 18 21 31 23 30 2 -2 -4 -46 -12 -97 -9 -57 -12
-103 -7 -118 9 -25 10 -24 66 37 105 113 188 283 229 464 25 115 21 236 -18
466 -24 143 -28 192 -28 365 0 176 3 210 22 280 35 126 101 248 221 410 120
163 197 299 232 415 19 59 24 98 24 187 l0 112 23 -44 c12 -25 26 -45 30 -45
4 0 7 69 8 153 0 114 7 198 28 337 40 263 29 383 -49 517 -14 24 -24 43 -22
43 3 0 23 -6 45 -14 l41 -15 -15 41 c-35 100 -106 185 -278 333 -166 142 -232
214 -269 294 -33 70 -46 178 -30 240 l9 34 34 -51 c19 -28 38 -52 42 -52 6 0
4 120 -6 460 -5 147 -25 236 -74 320 l-26 45 25 -16 c13 -9 37 -24 53 -35 l29
-18 -6 119 c-7 144 -38 274 -98 411 -42 95 -165 292 -217 347 -14 15 -23 27
-19 27 4 0 46 -24 94 -54 48 -30 89 -54 90 -52 1 1 -11 47 -27 101 -139 478
-442 879 -835 1104 -49 28 -92 51 -95 51 -4 0 -35 63 -69 140 -143 317 -232
389 -411 331z"/>
</g>
</svg>
